<svg t="1732457878800" class="icon" viewBox="0 0 1024 1024" version="1.1" xmlns="http://www.w3.org/2000/svg" p-id="1686" width="200" height="200"><path d="M678.208 918.4H490.432a12.416 12.416 0 0 1-12.416-12.48v-43.072c0-6.784 5.504-12.416 12.416-12.416h187.776c6.848 0 12.352 5.632 12.352 12.416v43.072a12.416 12.416 0 0 1-12.352 12.48z m218.048-221.504h-42.432a12.416 12.416 0 0 1-12.352-12.48v-190.72c0-6.848 5.504-12.48 12.352-12.48h42.432c6.848 0 12.416 5.632 12.416 12.416v190.784a12.352 12.352 0 0 1-12.416 12.48z m-484.608 153.536c6.912 0 12.416 5.632 12.416 12.416v43.072a12.416 12.416 0 0 1-12.416 12.48H317.76a58.24 58.24 0 0 1-57.792-58.624v-86.144c0-1.6-1.28-2.944-2.752-2.944H172.416a58.24 58.24 0 0 1-57.856-58.56V170.624a58.24 58.24 0 0 1 57.856-58.624h533.056a58.24 58.24 0 0 1 57.792 58.624v86.144c0 1.6 1.28 2.944 2.752 2.944h84.8c32 0 57.856 26.24 57.856 58.56v95.36a12.416 12.416 0 0 1-12.416 12.48h-42.432a12.416 12.416 0 0 1-12.352-12.416V327.68h-75.456c-1.472 0-2.752 1.28-2.752 2.944v381.44a58.24 58.24 0 0 1-57.792 58.624H329.92c-1.472 0-2.752 1.28-2.752 2.944v76.8h84.48z m281.664-147.712c1.472 0 2.752-1.28 2.752-2.944V182.912c0-1.6-1.28-2.944-2.752-2.944h-508.8c-1.472 0-2.752 1.28-2.752 2.944v516.864c0 1.664 1.28 2.944 2.752 2.944h508.8z m157.504 215.68h-93.888a12.416 12.416 0 0 1-12.416-12.48v-43.072c0-6.784 5.568-12.416 12.416-12.416h81.792c1.408 0 2.752-1.28 2.752-2.944v-83.072c0-6.848 5.504-12.48 12.352-12.48h42.432c6.848 0 12.416 5.632 12.416 12.48v95.36a58.24 58.24 0 0 1-57.856 58.624z" fill="#007bff" p-id="1687"></path></svg>